<?xml version="1.0" encoding="UTF-8"?>
<svg xmlns="http://www.w3.org/2000/svg" width="64" height="36" viewBox="0 0 256 144" fill="none">
  <!-- Clean, scalable keyboard icon (transparent background). -->
  <g stroke="currentColor" stroke-linecap="round" stroke-linejoin="round">
    <!-- Outer body -->
    <rect x="8" y="16" width="240" height="112" rx="18" stroke-width="8"/>
    <!-- Inner bezel -->
    <rect x="20" y="28" width="216" height="88" rx="12" stroke-width="3" opacity="0.85"/>

    <!-- Key grid -->
    <g stroke-width="3" opacity="0.9">
      <!-- Row 1 -->
      <rect x="30" y="38" width="18" height="14" rx="3"/>
      <rect x="52" y="38" width="18" height="14" rx="3"/>
      <rect x="74" y="38" width="18" height="14" rx="3"/>
      <rect x="96" y="38" width="18" height="14" rx="3"/>
      <rect x="118" y="38" width="18" height="14" rx="3"/>
      <rect x="140" y="38" width="18" height="14" rx="3"/>
      <rect x="162" y="38" width="18" height="14" rx="3"/>
      <rect x="184" y="38" width="18" height="14" rx="3"/>
      <rect x="206" y="38" width="18" height="14" rx="3"/>

      <!-- Row 2 -->
      <rect x="30" y="58" width="18" height="14" rx="3"/>
      <rect x="52" y="58" width="18" height="14" rx="3"/>
      <rect x="74" y="58" width="18" height="14" rx="3"/>
      <rect x="96" y="58" width="18" height="14" rx="3"/>
      <rect x="118" y="58" width="18" height="14" rx="3"/>
      <rect x="140" y="58" width="18" height="14" rx="3"/>
      <rect x="162" y="58" width="18" height="14" rx="3"/>
      <rect x="184" y="58" width="18" height="14" rx="3"/>
      <rect x="206" y="58" width="18" height="14" rx="3"/>

      <!-- Row 3 -->
      <rect x="30" y="78" width="22" height="14" rx="3"/>
      <rect x="56" y="78" width="18" height="14" rx="3"/>
      <rect x="78" y="78" width="18" height="14" rx="3"/>
      <rect x="100" y="78" width="18" height="14" rx="3"/>
      <rect x="122" y="78" width="18" height="14" rx="3"/>
      <rect x="144" y="78" width="18" height="14" rx="3"/>
      <rect x="166" y="78" width="18" height="14" rx="3"/>
      <rect x="188" y="78" width="18" height="14" rx="3"/>
      <rect x="210" y="78" width="14" height="14" rx="3"/>

      <!-- Space row -->
      <rect x="44" y="98" width="168" height="14" rx="4"/>
    </g>
  </g>
</svg>
